<svg xmlns="http://www.w3.org/2000/svg" width="164" viewBox="0 0 220 30" version="1.1"><desc>Created with Sketch.</desc><defs><polygon points="0 29.9 219.5 29.9 219.5 0 0 0"></polygon></defs><g stroke="none" stroke-width="1" fill="none" fill-rule="evenodd"><g transform="translate(-278.000000, -96.000000)"><g transform="translate(278.000000, 96.000000)"><path d="M48.7 28.2L48.7 17.1C48.7 13.9 47.2 12.4 44.4 12.4 41.3 12.4 39.4 14.9 39.4 18L39.4 28.2 35.1 28.2 35.1 9 39.3 9 39.3 10.9 40.2 10.9C41.3 9.4 43.1 8.6 45.7 8.6 50.5 8.6 52.9 11.5 52.9 16.2L52.9 28.2 48.7 28.2Z" fill="#4A5AC5"></path><path d="M62 12.7L62 28.2 57.7 28.2 57.7 12.7 54.7 12.7 54.7 9 57.7 9 57.7 7.3C57.7 2.7 60.5 0.9 64.9 0.9L67 0.9 67 4.5 64.9 4.5C62.8 4.5 62 5.9 62 7.5L62 9 67 9 67 12.7 62 12.7Z" fill="#4A5AC5"></path><path d="M73.3 9L73.3 20.2C73.3 23.3 74.7 24.9 77.6 24.9 80.6 24.9 82.6 22.3 82.6 19.3L82.6 9 86.8 9 86.8 28.2 82.7 28.2 82.7 26.3 81.8 26.3C80.7 27.8 78.8 28.7 76.3 28.7 71.5 28.7 69 25.8 69 21L69 9 73.3 9Z" fill="#4A5AC5"></path><path d="M101.6 14.2C101.4 12.5 99.8 12.1 97.8 12.1 95.8 12.1 94.4 12.7 94.4 14.1 94.4 15.3 95.2 15.7 96.8 16L100.6 16.6C104.1 17.2 106.4 19 106.4 22.5 106.4 25.7 103.6 28.7 98.2 28.7 92.5 28.7 89.8 26.2 89.4 22.4L93.6 22.4C94 24.3 95.6 25.1 98.1 25.1 100.6 25.1 102.2 24.4 102.2 22.6 102.2 21.2 101.2 20.5 99 20.1L95 19.4C92.1 18.9 90.1 17.4 90.1 14.4 90.1 11.1 92.5 8.6 98 8.6 102.7 8.6 105.5 10.8 105.9 14.2L101.6 14.2Z" fill="#4A5AC5"></path><mask fill="white"></mask><path d="M109.1 28.2L113.3 28.2 113.3 9 109.1 9 109.1 28.2ZM109 4.9L113.4 4.9 113.4 0.9 109 0.9 109 4.9Z" fill="#4A5AC5" mask="url(#mask-2)"></path><path d="M131.4 18.6C131.4 15.2 129.7 12.2 126 12.2 122.3 12.2 120.6 15.2 120.6 18.6 120.6 22 122.3 25.1 126 25.1 129.7 25.1 131.4 22 131.4 18.6M135.7 18.6C135.7 24.5 132.1 28.7 126 28.7 120 28.7 116.3 24.5 116.3 18.6 116.3 12.8 120 8.6 126 8.6 132.1 8.6 135.7 12.8 135.7 18.6" fill="#4A5AC5" mask="url(#mask-2)"></path><path d="M152.1 28.2L152.1 17.1C152.1 13.9 150.7 12.4 147.9 12.4 144.8 12.4 142.9 14.9 142.9 18L142.9 28.2 138.6 28.2 138.6 9 142.7 9 142.7 10.9 143.6 10.9C144.7 9.4 146.6 8.6 149.2 8.6 154 8.6 156.4 11.5 156.4 16.2L156.4 28.2 152.1 28.2Z" fill="#4A5AC5" mask="url(#mask-2)"></path><path d="M158.7 23L161.1 23C161.5 25.3 163.5 26.6 166.7 26.6 170 26.6 172.1 25.4 172.1 23 172.1 21.1 171.1 20 168.3 19.6 167.5 19.5 165.1 19.1 163.8 18.8 161.3 18.3 159.5 16.9 159.5 14.3 159.5 11.2 161.9 8.9 166.8 8.9 171 8.9 173.6 11 174 14.1L171.6 14.1C171.4 12.1 169.2 11 166.6 11 163.6 11 161.9 12.1 161.9 14 161.9 15.7 162.9 16.4 165.1 16.9 165.7 17 166.4 17 166.9 17.2L169.3 17.5C172.4 18.1 174.5 19.7 174.5 22.9 174.5 25.9 171.8 28.7 166.9 28.7 161.8 28.7 159.2 26.4 158.7 23" fill="#3A3A3A" mask="url(#mask-2)"></path><path d="M192.1 18.8C192.1 14.8 189.9 11 185.4 11 180.7 11 178.6 14.8 178.6 18.8 178.6 22.7 180.7 26.6 185.4 26.6 189.9 26.6 192.1 22.7 192.1 18.8M194.5 18.8C194.5 24.2 191.2 28.7 185.4 28.7 179.5 28.7 176.2 24.2 176.2 18.8 176.2 13.3 179.5 8.9 185.4 8.9 191.2 8.9 194.5 13.3 194.5 18.8" fill="#3A3A3A" mask="url(#mask-2)"></path><path d="M201.5 11.5L201.5 28.2 199.1 28.2 199.1 11.5 195.6 11.5 195.6 9.4 199.1 9.4 199.1 6.9C199.1 2.9 201.2 0.9 205.2 0.9L206.8 0.9 206.8 3 205.2 3C202.4 3 201.5 4.7 201.5 6.9L201.5 9.4 206.8 9.4 206.8 11.5 201.5 11.5Z" fill="#3A3A3A" mask="url(#mask-2)"></path><path d="M219.5 9.4L219.5 11.5 214.5 11.5 214.5 22.9C214.5 25 215.4 26.1 218.2 26.1L219.5 26.1 219.5 28.2 218.2 28.2C214.1 28.2 212.1 26.9 212.1 23.1L212.1 11.5 208.6 11.5 208.6 9.4 212.1 9.4 212.1 3.6 214.5 3.6 214.5 9.4 219.5 9.4Z" fill="#3A3A3A" mask="url(#mask-2)"></path><polygon fill="#4A5AC5" mask="url(#mask-2)" points="16.4 13.4 16.4 0 0 10.1 13.7 15"></polygon><polygon fill="#4A5AC5" mask="url(#mask-2)" points="13.7 15 12.5 15.8 13.3 16.1 16.8 17.3 16.8 28.3 1.2 22.7 0 23.5 17.9 29.9 17.9 16.5"></polygon><polyline fill="#4A5AC5" mask="url(#mask-2)" points="12.5 15.8 0 11.3 0 23.5"></polyline><polygon fill="#4A5AC5" mask="url(#mask-2)" points="25.7 27.4 29.9 27.4 29.9 0.8 25.7 0.8"></polygon></g></g></g></svg>